<?xml version="1.0" encoding="utf-8" ?>
<svg baseProfile="full" height="3754px" version="1.1" width="5447px" xmlns="http://www.w3.org/2000/svg" xmlns:ev="http://www.w3.org/2001/xml-events" xmlns:xlink="http://www.w3.org/1999/xlink"><defs><pattern height="6" id="wallHatch" patternUnits="userSpaceOnUse" width="6"><line stroke="black" stroke-width="0.5" x1="0" x2="6" y1="0" y2="6" /><line stroke="black" stroke-width="0.5" x1="0" x2="6" y1="6" y2="0" /></pattern></defs><path d="M 3088,3716 L 3085,3718 L 3085,3729 L 3076,3730 L 3076,3734 L 3094,3733 L 3094,3730 L 3088,3729 Z" fill="url(#wallHatch)" stroke="black" stroke-width="2" /><path d="M 2425,3712 L 2423,3712 L 2422,3729 L 2410,3730 L 2410,3733 L 2428,3733 L 2428,3730 L 2425,3729 Z" fill="url(#wallHatch)" stroke="black" stroke-width="2" /><path d="M 2810,3692 L 2801,3708 L 2804,3728 L 2810,3733 L 2833,3732 L 2810,3729 L 2813,3692 Z" fill="url(#wallHatch)" stroke="black" stroke-width="2" /><path d="M 2754,3690 L 2744,3708 L 2744,3724 L 2754,3733 L 2774,3733 L 2775,3730 L 2753,3729 Z" fill="url(#wallHatch)" stroke="black" stroke-width="2" /><path d="M 3132,3697 L 3135,3694 L 3135,3683 L 3148,3682 L 3147,3679 L 3128,3680 L 3128,3682 L 3132,3683 Z" fill="url(#wallHatch)" stroke="black" stroke-width="2" /><path d="M 3091,3680 L 3096,3683 L 3094,3694 L 3103,3697 L 3122,3735 L 3128,3712 L 3119,3710 L 3106,3680 Z" fill="url(#wallHatch)" stroke="black" stroke-width="2" /><path d="M 2985,3679 L 2989,3686 L 2978,3728 L 2968,3733 L 3010,3733 L 2985,3728 L 2996,3683 L 3007,3682 Z" fill="url(#wallHatch)" stroke="black" stroke-width="2" /><path d="M 2976,3683 L 2940,3680 L 2934,3729 L 2923,3733 L 2947,3733 L 2945,3712 L 2967,3707 L 2948,3704 L 2952,3682 L 2969,3683 L 2969,3704 Z" fill="url(#wallHatch)" stroke="black" stroke-width="2" /><path d="M 2867,3679 L 2861,3729 L 2850,3733 L 2872,3734 L 2869,3720 L 2880,3708 L 2893,3734 L 2892,3704 L 2876,3703 L 2878,3683 L 2896,3683 L 2897,3702 L 2904,3683 Z" fill="url(#wallHatch)" stroke="black" stroke-width="2" /><path d="M 2826,3680 L 2847,3683 L 2847,3720 L 2856,3705 L 2855,3687 L 2846,3679 Z" fill="url(#wallHatch)" stroke="black" stroke-width="2" /><path d="M 2768,3680 L 2790,3683 L 2790,3720 L 2798,3705 L 2797,3684 L 2789,3679 Z" fill="url(#wallHatch)" stroke="black" stroke-width="2" /><path d="M 2641,3730 L 2666,3733 L 2665,3710 L 2688,3707 L 2669,3701 L 2672,3682 L 2706,3682 L 2686,3733 L 2731,3732 L 2704,3728 L 2726,3680 L 2660,3679 L 2653,3729 Z" fill="url(#wallHatch)" stroke="black" stroke-width="2" /><path d="M 2638,3679 L 2618,3680 L 2618,3682 L 2623,3683 L 2623,3698 L 2625,3698 L 2626,3683 L 2638,3682 Z" fill="url(#wallHatch)" stroke="black" stroke-width="2" /><path d="M 2582,3680 L 2588,3683 L 2585,3694 L 2594,3697 L 2612,3734 L 2619,3713 L 2610,3711 L 2597,3680 Z" fill="url(#wallHatch)" stroke="black" stroke-width="2" /><path d="M 2578,3679 L 2556,3680 L 2561,3686 L 2550,3729 L 2539,3733 L 2563,3732 L 2557,3724 L 2568,3684 Z" fill="url(#wallHatch)" stroke="black" stroke-width="2" /><path d="M 2523,3679 L 2520,3691 L 2513,3693 L 2520,3696 L 2521,3710 L 2498,3716 L 2520,3717 L 2522,3729 L 2516,3733 L 2531,3734 L 2535,3730 L 2528,3679 Z" fill="url(#wallHatch)" stroke="black" stroke-width="2" /><path d="M 2494,3679 L 2480,3679 L 2467,3695 L 2473,3701 L 2466,3729 L 2455,3733 L 2478,3732 L 2474,3724 L 2485,3683 Z" fill="url(#wallHatch)" stroke="black" stroke-width="2" /><path d="M 2428,3680 L 2432,3683 L 2429,3697 L 2437,3699 L 2439,3725 L 2444,3733 L 2447,3721 L 2454,3718 L 2447,3715 L 2444,3680 Z" fill="url(#wallHatch)" stroke="black" stroke-width="2" /><path d="M 3061,3678 L 3056,3691 L 3050,3692 L 3056,3696 L 3057,3711 L 3033,3716 L 3056,3716 L 3057,3729 L 3051,3733 L 3066,3734 L 3071,3730 L 3066,3729 Z" fill="url(#wallHatch)" stroke="black" stroke-width="2" /><path d="M 2160,551 L 2160,577 L 2175,578 L 2176,573 L 2162,572 L 2162,554 L 2176,551 Z" fill="url(#wallHatch)" stroke="black" stroke-width="2" /><path d="M 2041,551 L 2042,578 L 2056,577 L 2056,574 L 2044,573 L 2044,554 L 2058,551 Z" fill="url(#wallHatch)" stroke="black" stroke-width="2" /><path d="M 2022,551 L 2022,553 L 2029,554 L 2029,578 L 2031,578 L 2031,554 L 2038,553 L 2038,551 Z" fill="url(#wallHatch)" stroke="black" stroke-width="2" /><path d="M 2163,501 L 2145,500 L 2145,525 L 2148,513 L 2161,512 L 2148,510 L 2147,504 Z" fill="url(#wallHatch)" stroke="black" stroke-width="2" /><path d="M 2191,499 L 2191,502 L 2198,503 L 2197,525 L 2200,526 L 2200,503 L 2206,502 L 2206,499 Z" fill="url(#wallHatch)" stroke="black" stroke-width="2" /><path d="M 2211,498 L 2210,525 L 2226,525 L 2213,522 L 2212,508 L 2213,502 L 2225,502 L 2226,498 Z" fill="url(#wallHatch)" stroke="black" stroke-width="2" /><path d="M 2170,498 L 2169,525 L 2185,525 L 2172,522 L 2172,502 L 2185,501 L 2185,498 Z" fill="url(#wallHatch)" stroke="black" stroke-width="2" /><path d="M 2126,498 L 2125,525 L 2141,525 L 2128,522 L 2128,502 L 2140,501 L 2141,498 Z" fill="url(#wallHatch)" stroke="black" stroke-width="2" /><path d="M 754,65 L 751,143 L 755,136 Z" fill="url(#wallHatch)" stroke="black" stroke-width="2" /><path d="M 4972,334 L 750,54 L 4702,145 L 750,150 L 2321,764 L 752,1435 L 495,779 L 1762,776 L 398,777 L 313,3307 L 4706,3626 Z" fill="url(#wallHatch)" stroke="black" stroke-width="2" /><path d="M 755,0 L 751,0 L 751,47 L 755,40 Z" fill="url(#wallHatch)" stroke="black" stroke-width="2" /><line stroke="black" stroke-linecap="round" stroke-width="1" x1="2157" x2="2210" y1="712" y2="712" /><line stroke="black" stroke-linecap="round" stroke-width="1" x1="2103" x2="2143" y1="713" y2="715" /><line stroke="black" stroke-linecap="round" stroke-width="1" x1="2240" x2="2298" y1="718" y2="718" /><line stroke="black" stroke-linecap="round" stroke-width="1" x1="2230" x2="2257" y1="122" y2="121" /><line stroke="black" stroke-linecap="round" stroke-width="1" x1="2157" x2="2200" y1="720" y2="721" /><line stroke="black" stroke-linecap="round" stroke-width="1" x1="2225" x2="2297" y1="713" y2="710" /><line stroke="black" stroke-linecap="round" stroke-width="1" x1="1946" x2="1975" y1="720" y2="720" /><line stroke="black" stroke-linecap="round" stroke-width="1" x1="2173" x2="2209" y1="723" y2="724" /><line stroke="black" stroke-linecap="round" stroke-width="1" x1="1299" x2="1326" y1="121" y2="121" /><line stroke="black" stroke-linecap="round" stroke-width="1" x1="1246" x2="1275" y1="130" y2="129" /><line stroke="black" stroke-linecap="round" stroke-width="1" x1="1280" x2="1303" y1="130" y2="130" /><line stroke="black" stroke-linecap="round" stroke-width="1" x1="2081" x2="2131" y1="723" y2="724" /><line stroke="black" stroke-linecap="round" stroke-width="1" x1="3144" x2="3169" y1="130" y2="130" /><line stroke="black" stroke-linecap="round" stroke-width="1" x1="2168" x2="2206" y1="502" y2="502" /><line stroke="black" stroke-linecap="round" stroke-width="1" x1="2104" x2="2132" y1="722" y2="723" /><line stroke="black" stroke-linecap="round" stroke-width="1" x1="3166" x2="3188" y1="124" y2="124" /><line stroke="black" stroke-linecap="round" stroke-width="1" x1="4146" x2="4178" y1="139" y2="138" /><line stroke="black" stroke-linecap="round" stroke-width="1" x1="2292" x2="2313" y1="536" y2="533" /><line stroke="black" stroke-linecap="round" stroke-width="1" x1="4150" x2="4185" y1="121" y2="120" /><line stroke="black" stroke-linecap="round" stroke-width="1" x1="2729" x2="2756" y1="38" y2="34" /><line stroke="black" stroke-linecap="round" stroke-width="1" x1="2050" x2="2077" y1="501" y2="501" /><line stroke="black" stroke-linecap="round" stroke-width="1" x1="2066" x2="2100" y1="509" y2="510" /><line stroke="black" stroke-linecap="round" stroke-width="1" x1="2176" x2="2207" y1="123" y2="123" /><line stroke="black" stroke-linecap="round" stroke-width="1" x1="2063" x2="2086" y1="554" y2="554" /><line stroke="black" stroke-linecap="round" stroke-width="1" x1="2075" x2="2102" y1="571" y2="562" /><line stroke="black" stroke-linecap="round" stroke-width="1" x1="2297" x2="2303" y1="480" y2="518" /><line stroke="black" stroke-linecap="round" stroke-width="1" x1="2101" x2="2122" y1="578" y2="560" /><line stroke="black" stroke-linecap="round" stroke-width="1" x1="2689" x2="2710" y1="44" y2="25" /><line stroke="black" stroke-linecap="round" stroke-width="1" x1="2063" x2="2088" y1="564" y2="561" /><line stroke="black" stroke-linecap="round" stroke-width="1" x1="2225" x2="2269" y1="712" y2="710" /><line stroke="black" stroke-linecap="round" stroke-width="1" x1="2293" x2="2313" y1="549" y2="549" /><line stroke="black" stroke-linecap="round" stroke-width="1" x1="3110" x2="3138" y1="132" y2="132" /><line stroke="black" stroke-linecap="round" stroke-width="1" x1="377" x2="397" y1="2082" y2="2065" /><line stroke="black" stroke-linecap="round" stroke-width="1" x1="2687" x2="2713" y1="41" y2="42" /><line stroke="black" stroke-linecap="round" stroke-width="1" x1="2178" x2="2201" y1="137" y2="136" /><line stroke="black" stroke-linecap="round" stroke-width="1" x1="3028" x2="3055" y1="3724" y2="3686" /><line stroke="black" stroke-linecap="round" stroke-width="1" x1="3030" x2="3056" y1="3714" y2="3713" /><line stroke="black" stroke-linecap="round" stroke-width="1" x1="2741" x2="2761" y1="38" y2="21" /><line stroke="black" stroke-linecap="round" stroke-width="1" x1="2160" x2="2181" y1="711" y2="710" /><line stroke="black" stroke-linecap="round" stroke-width="1" x1="2689" x2="2716" y1="24" y2="31" /><line stroke="black" stroke-linecap="round" stroke-width="1" x1="2029" x2="2059" y1="718" y2="719" /><line stroke="black" stroke-linecap="round" stroke-width="1" x1="2113" x2="2137" y1="564" y2="576" /><line stroke="black" stroke-linecap="round" stroke-width="1" x1="385" x2="394" y1="2043" y2="2016" /><line stroke="black" stroke-linecap="round" stroke-width="1" x1="2188" x2="2208" y1="711" y2="710" /><line stroke="black" stroke-linecap="round" stroke-width="1" x1="2725" x2="2757" y1="36" y2="38" /><line stroke="black" stroke-linecap="round" stroke-width="1" x1="377" x2="376" y1="2047" y2="2082" /><line stroke="black" stroke-linecap="round" stroke-width="1" x1="2064" x2="2086" y1="573" y2="550" /><line stroke="black" stroke-linecap="round" stroke-width="1" x1="1972" x2="1994" y1="718" y2="719" /><line stroke="black" stroke-linecap="round" stroke-width="1" x1="2688" x2="2722" y1="28" y2="26" /><line stroke="black" stroke-linecap="round" stroke-width="1" x1="379" x2="379" y1="2001" y2="2025" /><line stroke="black" stroke-linecap="round" stroke-width="1" x1="1804" x2="1804" y1="874" y2="853" /><line stroke="black" stroke-linecap="round" stroke-width="1" x1="1106" x2="1126" y1="1085" y2="1084" /></svg>